<svg width="73" height="52" viewBox="0 0 73 52" fill="none" xmlns="http://www.w3.org/2000/svg">
<path d="M54.8018 14.4244C64.8176 22.355 73.0039 28.8488 73 28.8519C72.9922 28.8549 72.3876 28.4834 71.6511 28.0229C70.9147 27.5623 69.779 26.8561 69.1317 26.4478C68.4805 26.0425 60.8911 21.3019 52.2591 15.9104L36.5726 6.10995C13.4867 20.562 5.92059 25.2995 4.8663 25.9596C3.81201 26.6197 2.31973 27.5531 1.55226 28.0351C0.784798 28.5141 0.0870972 28.9501 0.00182343 28.9992C-0.0834503 29.0484 2.83137 26.7333 6.47488 23.8534L13.103 18.6154C13.134 12.0756 13.1495 10.1751 13.1534 10.172C13.1572 10.1658 14.7077 10.1658 16.5992 10.172L20.0411 10.1781C20.0567 12.6835 20.0722 12.9875 20.107 12.9875C20.1342 12.9875 23.8475 10.0645 28.3553 6.49374C32.8632 2.92295 36.561 0 36.5726 0C36.5842 0 44.786 6.49067 54.8018 14.4244Z" fill="#DBD9CC"/>
<path d="M13.856 38.592H6.872L5.672 42H2.816L8.792 25.296H11.96L17.936 42H15.056L13.856 38.592ZM13.088 36.36L10.376 28.608L7.64 36.36H13.088ZM23.2704 30.696C23.6704 30.024 24.1984 29.504 24.8544 29.136C25.5264 28.752 26.3184 28.56 27.2304 28.56V31.392H26.5344C25.4624 31.392 24.6464 31.664 24.0864 32.208C23.5424 32.752 23.2704 33.696 23.2704 35.04V42H20.5344V28.776H23.2704V30.696ZM34.9773 35.4L41.0733 42H37.3773L32.4813 36.312V42H29.7453V24.24H32.4813V34.56L37.2813 28.776H41.0733L34.9773 35.4ZM44.4264 27.024C43.9304 27.024 43.5144 26.856 43.1784 26.52C42.8424 26.184 42.6744 25.768 42.6744 25.272C42.6744 24.776 42.8424 24.36 43.1784 24.024C43.5144 23.688 43.9304 23.52 44.4264 23.52C44.9064 23.52 45.3144 23.688 45.6504 24.024C45.9864 24.36 46.1544 24.776 46.1544 25.272C46.1544 25.768 45.9864 26.184 45.6504 26.52C45.3144 26.856 44.9064 27.024 44.4264 27.024ZM45.7704 28.776V42H43.0344V28.776H45.7704ZM52.0985 24.24V42H49.3625V24.24H52.0985ZM54.7786 35.328C54.7786 34 55.0506 32.824 55.5946 31.8C56.1546 30.776 56.9066 29.984 57.8506 29.424C58.8106 28.848 59.8666 28.56 61.0186 28.56C62.0586 28.56 62.9626 28.768 63.7306 29.184C64.5146 29.584 65.1386 30.088 65.6026 30.696V28.776H68.3626V42H65.6026V40.032C65.1386 40.656 64.5066 41.176 63.7066 41.592C62.9066 42.008 61.9946 42.216 60.9706 42.216C59.8346 42.216 58.7946 41.928 57.8506 41.352C56.9066 40.76 56.1546 39.944 55.5946 38.904C55.0506 37.848 54.7786 36.656 54.7786 35.328ZM65.6026 35.376C65.6026 34.464 65.4106 33.672 65.0266 33C64.6586 32.328 64.1706 31.816 63.5626 31.464C62.9546 31.112 62.2986 30.936 61.5946 30.936C60.8906 30.936 60.2346 31.112 59.6266 31.464C59.0186 31.8 58.5226 32.304 58.1386 32.976C57.7706 33.632 57.5866 34.416 57.5866 35.328C57.5866 36.24 57.7706 37.04 58.1386 37.728C58.5226 38.416 59.0186 38.944 59.6266 39.312C60.2506 39.664 60.9066 39.84 61.5946 39.84C62.2986 39.84 62.9546 39.664 63.5626 39.312C64.1706 38.96 64.6586 38.448 65.0266 37.776C65.4106 37.088 65.6026 36.288 65.6026 35.376Z" fill="white"/>
</svg>
