<svg width="32" height="33" viewBox="0 0 32 33" fill="none" xmlns="http://www.w3.org/2000/svg">
<g clip-path="url(#clip0_379_148)">
<path d="M2 15.7086H30" stroke="#10A37F" stroke-width="2" stroke-linecap="round" stroke-linejoin="round"/>
<path d="M28 23.7086V26.7086C28 26.9738 27.8946 27.2282 27.7071 27.4157C27.5196 27.6033 27.2652 27.7086 27 27.7086H24C23.7348 27.7086 23.4804 27.6033 23.2929 27.4157C23.1054 27.2282 23 26.9738 23 26.7086V23.7086" stroke="#10A37F" stroke-width="2" stroke-linecap="round" stroke-linejoin="round"/>
<path d="M9 23.7086V26.7086C9 26.9738 8.89464 27.2282 8.70711 27.4157C8.51957 27.6033 8.26522 27.7086 8 27.7086H5C4.73478 27.7086 4.48043 27.6033 4.29289 27.4157C4.10536 27.2282 4 26.9738 4 26.7086V23.7086" stroke="#10A37F" stroke-width="2" stroke-linecap="round" stroke-linejoin="round"/>
<path d="M8 19.7086H10" stroke="#10A37F" stroke-width="2" stroke-linecap="round" stroke-linejoin="round"/>
<path d="M22 19.7086H24" stroke="#10A37F" stroke-width="2" stroke-linecap="round" stroke-linejoin="round"/>
<path d="M28 15.7086L24.2638 7.30237C24.1852 7.12563 24.057 6.97548 23.8949 6.8701C23.7327 6.76471 23.5434 6.70862 23.35 6.70862H8.65C8.45659 6.70862 8.26733 6.76471 8.10514 6.8701C7.94296 6.97548 7.81482 7.12563 7.73625 7.30237L4 15.7086V23.7086H28V15.7086Z" stroke="#10A37F" stroke-width="2" stroke-linecap="round" stroke-linejoin="round"/>
</g>
<defs>
<clipPath id="clip0_379_148">
<rect width="32" height="32" fill="white" transform="translate(0 0.708618)"/>
</clipPath>
</defs>
</svg>
