<svg width="32" height="33" viewBox="0 0 32 33" fill="none" xmlns="http://www.w3.org/2000/svg">
<g clip-path="url(#clip0_379_166)">
<path d="M14 23.7086H4C3.46957 23.7086 2.96086 23.4979 2.58579 23.1228C2.21071 22.7478 2 22.2391 2 21.7086V12.7086C2 12.1782 2.21071 11.6695 2.58579 11.2944C2.96086 10.9193 3.46957 10.7086 4 10.7086H14" stroke="#10A37F" stroke-width="2" stroke-linecap="round" stroke-linejoin="round"/>
<path d="M14 27.7086H8" stroke="#10A37F" stroke-width="2" stroke-linecap="round" stroke-linejoin="round"/>
<path d="M26 9.70862H22" stroke="#10A37F" stroke-width="2" stroke-linecap="round" stroke-linejoin="round"/>
<path d="M26 13.7086H22" stroke="#10A37F" stroke-width="2" stroke-linecap="round" stroke-linejoin="round"/>
<path d="M29 5.70862H19C18.4477 5.70862 18 6.15633 18 6.70862V26.7086C18 27.2609 18.4477 27.7086 19 27.7086H29C29.5523 27.7086 30 27.2609 30 26.7086V6.70862C30 6.15633 29.5523 5.70862 29 5.70862Z" stroke="#10A37F" stroke-width="2" stroke-linecap="round" stroke-linejoin="round"/>
<path d="M11 23.7086V27.7086" stroke="#10A37F" stroke-width="2" stroke-linecap="round" stroke-linejoin="round"/>
<path d="M24 24.7086C24.8284 24.7086 25.5 24.037 25.5 23.2086C25.5 22.3802 24.8284 21.7086 24 21.7086C23.1716 21.7086 22.5 22.3802 22.5 23.2086C22.5 24.037 23.1716 24.7086 24 24.7086Z" fill="#10A37F"/>
</g>
<defs>
<clipPath id="clip0_379_166">
<rect width="32" height="32" fill="white" transform="translate(0 0.708618)"/>
</clipPath>
</defs>
</svg>
