<svg width="34" height="34" viewBox="0 0 34 34" fill="none" xmlns="http://www.w3.org/2000/svg">
<path d="M31.8538 13.178C31.2815 12.58 30.6896 11.9638 30.4664 11.4219C30.26 10.9255 30.2479 10.1029 30.2357 9.30598C30.2129 7.82455 30.1887 6.1458 29.0214 4.97857C27.8542 3.81134 26.1754 3.78705 24.694 3.76429C23.8971 3.75214 23.0745 3.74 22.5781 3.53357C22.0378 3.31045 21.42 2.71848 20.822 2.14625C19.7746 1.13991 18.5846 0 17 0C15.4154 0 14.2269 1.13991 13.178 2.14625C12.58 2.71848 11.9638 3.31045 11.4219 3.53357C10.9286 3.74 10.1029 3.75214 9.30598 3.76429C7.82455 3.78705 6.1458 3.81134 4.97857 4.97857C3.81134 6.1458 3.79464 7.82455 3.76429 9.30598C3.75214 10.1029 3.74 10.9255 3.53357 11.4219C3.31045 11.9622 2.71848 12.58 2.14625 13.178C1.13991 14.2254 0 15.4154 0 17C0 18.5846 1.13991 19.7731 2.14625 20.822C2.71848 21.42 3.31045 22.0363 3.53357 22.5781C3.74 23.0745 3.75214 23.8971 3.76429 24.694C3.78705 26.1754 3.81134 27.8542 4.97857 29.0214C6.1458 30.1887 7.82455 30.2129 9.30598 30.2357C10.1029 30.2479 10.9255 30.26 11.4219 30.4664C11.9622 30.6896 12.58 31.2815 13.178 31.8538C14.2254 32.8601 15.4154 34 17 34C18.5846 34 19.7731 32.8601 20.822 31.8538C21.42 31.2815 22.0363 30.6896 22.5781 30.4664C23.0745 30.26 23.8971 30.2479 24.694 30.2357C26.1754 30.2129 27.8542 30.1887 29.0214 29.0214C30.1887 27.8542 30.2129 26.1754 30.2357 24.694C30.2479 23.8971 30.26 23.0745 30.4664 22.5781C30.6896 22.0378 31.2815 21.42 31.8538 20.822C32.8601 19.7746 34 18.5846 34 17C34 15.4154 32.8601 14.2269 31.8538 13.178ZM23.9305 14.2163L15.4305 22.7163C15.3178 22.8292 15.1838 22.9187 15.0364 22.9798C14.889 23.0409 14.731 23.0724 14.5714 23.0724C14.4119 23.0724 14.2538 23.0409 14.1064 22.9798C13.959 22.9187 13.8251 22.8292 13.7123 22.7163L10.0695 19.0734C9.84161 18.8455 9.71361 18.5365 9.71361 18.2143C9.71361 17.8921 9.84161 17.583 10.0695 17.3552C10.2973 17.1273 10.6063 16.9993 10.9286 16.9993C11.2508 16.9993 11.5598 17.1273 11.7877 17.3552L14.5714 20.1404L22.2123 12.498C22.3251 12.3852 22.4591 12.2957 22.6065 12.2347C22.7539 12.1736 22.9119 12.1422 23.0714 12.1422C23.231 12.1422 23.389 12.1736 23.5364 12.2347C23.6838 12.2957 23.8177 12.3852 23.9305 12.498C24.0434 12.6109 24.1328 12.7448 24.1939 12.8922C24.255 13.0396 24.2864 13.1976 24.2864 13.3571C24.2864 13.5167 24.255 13.6747 24.1939 13.8221C24.1328 13.9695 24.0434 14.1034 23.9305 14.2163Z" fill="#FF8200"/>
</svg>
