<svg width="32" height="33" viewBox="0 0 32 33" fill="none" xmlns="http://www.w3.org/2000/svg">
<path d="M17.5 26.2087C17.5 26.5053 17.412 26.7953 17.2472 27.042C17.0824 27.2887 16.8481 27.4809 16.574 27.5945C16.2999 27.708 15.9983 27.7377 15.7073 27.6798C15.4164 27.622 15.1491 27.4791 14.9393 27.2693C14.7295 27.0595 14.5867 26.7923 14.5288 26.5013C14.4709 26.2103 14.5006 25.9087 14.6142 25.6346C14.7277 25.3605 14.92 25.1263 15.1666 24.9614C15.4133 24.7966 15.7033 24.7087 16 24.7087C16.3978 24.7087 16.7793 24.8667 17.0606 25.148C17.3419 25.4293 17.5 25.8108 17.5 26.2087ZM29.635 11.5837C25.7906 8.43038 20.9721 6.70703 16 6.70703C11.0278 6.70703 6.20936 8.43038 2.36499 11.5837C2.26346 11.667 2.17935 11.7696 2.11746 11.8855C2.05557 12.0014 2.01712 12.1284 2.00429 12.2591C1.99146 12.3899 2.00452 12.5219 2.04271 12.6476C2.0809 12.7733 2.14347 12.8902 2.22686 12.9918C2.31025 13.0933 2.41282 13.1774 2.52871 13.2393C2.64461 13.3012 2.77156 13.3396 2.90232 13.3525C3.16639 13.3784 3.42994 13.2983 3.63499 13.1299C7.1215 10.2708 11.4911 8.70826 16 8.70826C20.5089 8.70826 24.8785 10.2708 28.365 13.1299C28.57 13.2983 28.8336 13.3784 29.0977 13.3525C29.3617 13.3266 29.6047 13.1968 29.7731 12.9918C29.9415 12.7867 30.0216 12.5232 29.9957 12.2591C29.9698 11.995 29.84 11.7521 29.635 11.5837ZM25.625 16.0549C22.8867 13.8869 19.4964 12.7073 16.0037 12.7073C12.5111 12.7073 9.12082 13.8869 6.38249 16.0549C6.17462 16.2197 6.04072 16.4603 6.01025 16.7237C5.97978 16.9872 6.05522 17.252 6.21999 17.4599C6.38475 17.6678 6.62534 17.8017 6.88883 17.8321C7.15232 17.8626 7.41712 17.7872 7.62499 17.6224C10.0098 15.7347 12.9622 14.7076 16.0037 14.7076C19.0453 14.7076 21.9977 15.7347 24.3825 17.6224C24.4854 17.704 24.6034 17.7645 24.7297 17.8005C24.856 17.8365 24.9882 17.8473 25.1186 17.8322C25.2491 17.8171 25.3753 17.7764 25.4901 17.7126C25.6049 17.6487 25.7059 17.5628 25.7875 17.4599C25.8691 17.357 25.9296 17.239 25.9656 17.1127C26.0016 16.9864 26.0124 16.8542 25.9973 16.7237C25.9822 16.5933 25.9415 16.4671 25.8777 16.3523C25.8138 16.2375 25.7279 16.1365 25.625 16.0549ZM21.5925 20.5249C19.9682 19.3444 18.0117 18.7086 16.0037 18.7086C13.9957 18.7086 12.0393 19.3444 10.415 20.5249C10.2005 20.681 10.0568 20.916 10.0156 21.1781C9.9743 21.4402 10.0388 21.7079 10.195 21.9224C10.3511 22.1369 10.5861 22.2806 10.8482 22.3218C11.1103 22.3631 11.378 22.2985 11.5925 22.1424C12.8744 21.2101 14.4187 20.7079 16.0037 20.7079C17.5888 20.7079 19.1331 21.2101 20.415 22.1424C20.5212 22.2197 20.6416 22.2754 20.7693 22.3061C20.897 22.3369 21.0295 22.3423 21.1593 22.3218C21.2891 22.3014 21.4135 22.2556 21.5256 22.1871C21.6377 22.1185 21.7352 22.0286 21.8125 21.9224C21.8898 21.8162 21.9454 21.6958 21.9762 21.5681C22.007 21.4404 22.0123 21.3079 21.9919 21.1781C21.9715 21.0483 21.9257 20.9238 21.8572 20.8118C21.7886 20.6997 21.6987 20.6022 21.5925 20.5249Z" fill="#10A37F"/>
</svg>
